<?xml version="1.0" encoding="utf-8"?>
<!-- Generator: Adobe Illustrator 25.4.1, SVG Export Plug-In . SVG Version: 6.00 Build 0)  -->
<svg version="1.1" id="Warstwa_1" xmlns="http://www.w3.org/2000/svg" xmlns:xlink="http://www.w3.org/1999/xlink" x="0px" y="0px"
	 viewBox="0 0 500 161" style="enable-background:new 0 0 500 161;" xml:space="preserve">
<style type="text/css">
	.st0{fill:#1D1D1B;}
	.st1{fill:#E20613;}
	.st2{fill-rule:evenodd;clip-rule:evenodd;fill:#1D1D1B;}
	.st3{fill:none;stroke:#1D1D1B;stroke-width:0.2242;stroke-miterlimit:10;}
</style>
<g id="logo_UJK">
	<path class="st0" d="M226.7,33.3c0,3.2-1.3,7.6-7,7.6c-5.7,0-7-4.4-7-7.6v-12h1.9v11.8c0,5.5,3.6,6,5,6c1.5,0,5-0.5,5-6V21.3h1.9
		V33.3z"/>
	<path class="st0" d="M233.4,27.8c0.1,0.7,0.1,1.3,0.1,2h0.1c0.8-1.4,2.6-2.3,4.2-2.3c3.2,0,4.8,1.8,4.8,4.9v8h-1.8v-7
		c0-2.8-0.8-4.3-3.4-4.3c-0.4,0-3.8,0.2-3.8,4.9v6.5h-1.8v-9.8c0-0.7-0.1-1.9-0.1-2.8H233.4z"/>
	<path class="st0" d="M248.8,24.2c-0.6,0-1.3-0.5-1.3-1.3c0-0.8,0.6-1.3,1.3-1.3c0.6,0,1.3,0.5,1.3,1.3
		C250.1,23.7,249.4,24.2,248.8,24.2 M249.7,40.4h-1.8V27.8h1.8V40.4z"/>
	<polygon class="st0" points="255.3,27.8 258.2,38 258.3,38 261.6,27.8 263.5,27.8 266.9,38 266.9,38 269.8,27.8 271.9,27.8 
		267.9,40.4 265.9,40.4 262.6,30.1 262.5,30.1 259.2,40.4 257.2,40.4 253.2,27.8 	"/>
	<path class="st0" d="M276.3,34.6c0.2,2.5,2.1,4.5,4.6,4.5c1.9,0,3.3-1,4-2.2l1.4,1.1c-1.5,1.9-3.3,2.7-5.4,2.7
		c-3.8,0-6.5-2.8-6.5-6.6c0-3.8,2.8-6.6,6.4-6.6c3.8,0,6,2.9,6,6.3v0.8H276.3z M284.9,33.1c0-2.4-1.5-4-4.1-4c-2.3,0-4.4,2-4.4,4
		H284.9z"/>
	<path class="st0" d="M291,31.7c0-1.1-0.1-2.1-0.1-3.9h1.7v2.3h0.1c0.5-1.3,1.8-2.7,4-2.7c0.5,0,0.9,0.1,1.3,0.2l-0.4,1.8
		c-0.2-0.1-0.5-0.1-1-0.1c-2.7,0-3.9,2.3-3.9,4v7.1H291V31.7z"/>
	<path class="st0" d="M307.3,30.8c-0.5-1-1.4-1.7-2.7-1.7c-1.2,0-2.6,0.5-2.6,1.9c0,1.2,0.8,1.6,2.5,2l1.8,0.4
		c1.8,0.4,3.1,1.7,3.1,3.5c0,2.8-2.5,3.9-4.9,3.9c-1.9,0-3.7-0.7-4.9-2.5l1.5-1.1c0.7,1.1,1.8,1.9,3.3,1.9c1.5,0,3-0.6,3-2.1
		c0-1.3-1.1-1.7-2.4-2l-1.7-0.4c-0.9-0.2-3.2-0.9-3.2-3.3c0-2.6,2.3-3.8,4.7-3.8c1.7,0,3.4,0.6,4.2,2.3L307.3,30.8z"/>
	<path class="st0" d="M317.6,38.2l3.9-10.4h2.2l-6.3,15.9c-0.8,1.9-1.8,3.2-4,3.2c-0.5,0-1.1,0-1.6-0.2l0.2-1.7
		c0.4,0.2,0.9,0.3,1.3,0.3c1.2,0,1.9-0.8,2.4-2.3l0.9-2.4l-5.2-12.8h2.2L317.6,38.2z"/>
	<path class="st0" d="M337.7,34.6c0.2,2.5,2.1,4.5,4.6,4.5c1.9,0,3.3-1,4-2.2l1.4,1.1c-1.5,1.9-3.3,2.7-5.4,2.7
		c-3.8,0-6.5-2.8-6.5-6.6c0-3.8,2.8-6.6,6.4-6.6c3.8,0,6,2.9,6,6.3v0.8H337.7z M346.3,33.1c0-2.4-1.5-4-4.1-4c-2.3,0-4.4,2-4.4,4
		H346.3z"/>
	<path class="st0" d="M212.8,68.9c0.3,1.6,1.3,2.6,3,2.6c2.8,0,3.4-2.4,3.4-4.7V53.7h1.9v13.9c0,2.6-1.3,5.7-5.4,5.7
		c-2.6,0-4.5-1.4-4.9-4L212.8,68.9z"/>
	<path class="st0" d="M234.3,65v-0.3c0-2.2-1.1-3.3-3.2-3.3c-1.5,0-2.8,0.5-3.9,1.5l-1.1-1.3c1.2-1.2,3-1.8,5.3-1.8
		c2.5,0,4.6,1.4,4.6,4.5v5.6c0,1,0.1,2.2,0.2,2.8h-1.7c-0.1-0.6-0.2-1.4-0.2-2.1h-0.1c-1,1.7-2.4,2.4-4.5,2.4
		c-2.2,0-4.3-1.2-4.3-3.7c0-4.1,4.8-4.4,7.9-4.4H234.3z M233.4,66.5c-1.8,0-5.9,0.1-5.9,2.7c0,1.7,1.5,2.3,3,2.3
		c2.6,0,3.8-1.8,3.8-4.1v-0.9H233.4z"/>
	<path class="st0" d="M242.7,60.1c0.1,0.7,0.1,1.4,0.1,2h0.1c0.8-1.4,2.6-2.3,4.2-2.3c3.2,0,4.7,1.8,4.7,4.9v8H250v-7
		c0-2.8-0.8-4.3-3.4-4.3c-0.4,0-3.8,0.2-3.8,4.9v6.5H241v-9.8c0-0.7-0.1-1.9-0.1-2.8H242.7z"/>
	<path class="st0" d="M264.9,65v-0.3c0-2.2-1.1-3.3-3.2-3.3c-1.5,0-2.8,0.5-3.9,1.5l-1.1-1.3c1.2-1.2,3-1.8,5.3-1.8
		c2.5,0,4.6,1.4,4.6,4.5v5.6c0,1,0.1,2.2,0.2,2.8h-1.7c-0.1-0.6-0.2-1.4-0.2-2.1h-0.1c-1,1.7-2.4,2.4-4.5,2.4
		c-2.2,0-4.3-1.2-4.3-3.7c0-4.1,4.8-4.4,7.8-4.4H264.9z M264,66.5c-1.8,0-5.9,0.1-5.9,2.7c0,1.7,1.5,2.3,3,2.3
		c2.6,0,3.8-1.8,3.8-4.1v-0.9H264z"/>
	<polygon class="st0" points="282.5,62 282.8,62 291.7,53.7 294.5,53.7 284.9,62.3 295.1,72.8 292.2,72.8 282.8,62.9 282.5,62.9 
		282.5,72.8 280.5,72.8 280.5,53.7 282.5,53.7 	"/>
	<path class="st0" d="M303.7,73.1c-3.9,0-6.7-2.8-6.7-6.6c0-3.8,2.8-6.6,6.7-6.6c3.9,0,6.7,2.8,6.7,6.6
		C310.5,70.3,307.7,73.1,303.7,73.1 M303.7,61.4c-2.9,0-4.7,2.2-4.7,5c0,2.8,1.8,5,4.7,5c2.9,0,4.8-2.2,4.8-5
		C308.5,63.6,306.7,61.4,303.7,61.4z"/>
	<path class="st0" d="M323.7,63.1c-0.6-0.9-1.8-1.7-3.2-1.7c-2.9-0.1-4.7,2.1-4.7,5c0,2.9,1.8,5.1,4.7,5c1.4,0,2.6-0.8,3.2-1.7
		l1.5,1.1c-1.2,1.5-2.9,2.2-4.6,2.2c-4.1,0-6.7-2.8-6.7-6.6c0-3.8,2.6-6.7,6.7-6.6c1.7,0,3.4,0.7,4.6,2.2L323.7,63.1z"/>
	<path class="st0" d="M328.3,52.4h1.8v9.8h0.1c0.8-1.4,2.6-2.3,4.2-2.3c3.2,0,4.7,1.8,4.7,4.9v8h-1.8v-7c0-2.8-0.8-4.3-3.4-4.3
		c-0.4,0-3.8,0.2-3.8,4.9v6.5h-1.8V52.4z"/>
	<path class="st0" d="M352.2,65v-0.3c0-2.2-1.1-3.3-3.2-3.3c-1.5,0-2.8,0.5-3.9,1.5l-1.1-1.3c1.2-1.2,3-1.8,5.3-1.8
		c2.5,0,4.6,1.4,4.6,4.5v5.6c0,1,0.1,2.2,0.2,2.8h-1.7c-0.1-0.6-0.2-1.4-0.2-2.1h-0.1c-1,1.7-2.4,2.4-4.5,2.4
		c-2.2,0-4.3-1.2-4.3-3.7c0-4.1,4.8-4.4,7.8-4.4H352.2z M351.3,66.5c-1.8,0-5.9,0.1-5.9,2.7c0,1.7,1.5,2.3,3,2.3
		c2.6,0,3.8-1.8,3.8-4.1v-0.9H351.3z"/>
	<path class="st0" d="M360.6,60.1c0.1,0.7,0.1,1.4,0.1,2h0c0.8-1.4,2.6-2.3,4.2-2.3c3.2,0,4.7,1.8,4.7,4.9v8h-1.8v-7
		c0-2.8-0.8-4.3-3.4-4.3c-0.4,0-3.8,0.2-3.8,4.9v6.5h-1.8v-9.8c0-0.7-0.1-1.9-0.1-2.8H360.6z"/>
	<path class="st0" d="M380.7,73.1c-3.9,0-6.7-2.8-6.7-6.6c0-3.8,2.8-6.6,6.7-6.6c3.9,0,6.7,2.8,6.7,6.6
		C387.5,70.3,384.7,73.1,380.7,73.1 M380.7,61.4c-2.9,0-4.7,2.2-4.7,5c0,2.8,1.8,5,4.7,5c2.9,0,4.8-2.2,4.8-5
		C385.5,63.6,383.7,61.4,380.7,61.4z"/>
	<polygon class="st0" points="392,60.1 395,70.4 395,70.4 398.4,60.1 400.2,60.1 403.6,70.4 403.6,70.4 406.5,60.1 408.7,60.1 
		404.7,72.8 402.7,72.8 399.3,62.4 399.3,62.4 395.9,72.8 393.9,72.8 389.9,60.1 	"/>
	<path class="st0" d="M418.5,63.1c-0.5-1-1.4-1.7-2.7-1.7c-1.2,0-2.6,0.5-2.6,1.9c0,1.2,0.8,1.6,2.5,2l1.8,0.4
		c1.8,0.4,3.1,1.7,3.1,3.5c0,2.8-2.5,3.9-4.9,3.9c-1.9,0-3.7-0.7-4.9-2.5l1.5-1.1c0.7,1.1,1.8,1.9,3.3,1.9c1.5,0,3-0.6,3-2.1
		c0-1.3-1.1-1.7-2.4-2l-1.7-0.4c-0.9-0.2-3.2-0.9-3.2-3.3c0-2.6,2.3-3.8,4.7-3.8c1.8,0,3.4,0.6,4.2,2.3L418.5,63.1z"/>
	<polygon class="st0" points="425.8,65.8 431.8,60.1 434.5,60.1 428.2,65.9 435.2,72.8 432.4,72.8 425.8,66.1 425.8,72.8 
		424.1,72.8 424.1,52.4 425.8,52.4 	"/>
	<path class="st0" d="M439.2,56.6c-0.7,0-1.3-0.5-1.3-1.3c0-0.8,0.6-1.3,1.3-1.3c0.6,0,1.3,0.5,1.3,1.3
		C440.5,56,439.8,56.6,439.2,56.6 M440.1,72.8h-1.8V60.1h1.8V72.8z"/>
	<path class="st0" d="M446.4,66.9c0.2,2.5,2.1,4.5,4.6,4.5c1.9,0,3.3-1.1,4-2.2l1.4,1.1c-1.5,1.9-3.3,2.7-5.4,2.7
		c-3.7,0-6.5-2.8-6.5-6.6c0-3.8,2.8-6.6,6.4-6.6c3.8,0,6,2.9,6,6.3v0.8H446.4z M455,65.5c0-2.4-1.5-4-4.1-4c-2.3,0-4.4,2-4.4,4H455z
		"/>
	<path class="st0" d="M461.9,75.3c1.1,1.4,2.8,2.3,4.8,2.3c3.6,0,4.9-2.2,4.9-5v-2.3h-0.1c-1.1,1.7-2.9,2.4-4.7,2.4
		c-3.6,0-6.6-2.7-6.6-6.4c0-3.7,2.7-6.5,6.4-6.5c1.5,0,3.4,0.5,4.9,2.4h0.1v-2.1h1.8v12.5c0,2.8-1.1,6.6-6.8,6.6
		c-2.5,0-4.4-0.8-6.1-2.5L461.9,75.3z M466.9,71.2c2.6,0,4.9-1.9,4.8-4.9c0-2.6-1.8-4.9-4.8-4.9c-2.6,0-4.7,2.2-4.7,4.9
		C462.3,68.9,464.3,71.2,466.9,71.2z"/>
	<path class="st0" d="M484.3,73.1c-3.9,0-6.7-2.8-6.7-6.6c0-3.8,2.8-6.6,6.7-6.6c3.9,0,6.7,2.8,6.7,6.6
		C491,70.3,488.2,73.1,484.3,73.1 M484.3,61.4c-2.9,0-4.7,2.2-4.7,5c0,2.8,1.8,5,4.7,5c2.9,0,4.8-2.2,4.8-5
		C489.1,63.6,487.2,61.4,484.3,61.4z"/>
	<polygon class="st0" points="212.9,92.5 215.8,102.8 215.9,102.8 219.3,92.5 221.1,92.5 224.5,102.8 224.5,102.8 227.4,92.5 
		229.5,92.5 225.5,105.1 223.6,105.1 220.2,94.8 220.2,94.8 216.8,105.1 214.8,105.1 210.8,92.5 	"/>
	<polygon class="st0" points="243.6,94.3 243.8,94.3 252.8,86 255.6,86 246,94.7 256.1,105.1 253.3,105.1 243.9,95.3 243.6,95.3 
		243.6,105.1 241.6,105.1 241.6,86 243.6,86 	"/>
	<path class="st0" d="M260.1,88.9c-0.6,0-1.3-0.5-1.3-1.3c0-0.8,0.6-1.3,1.3-1.3c0.6,0,1.3,0.5,1.3,1.3
		C261.3,88.4,260.7,88.9,260.1,88.9 M260.9,105.1h-1.8V92.5h1.8V105.1z"/>
	<path class="st0" d="M267.3,99.3c0.2,2.5,2.1,4.5,4.6,4.5c1.9,0,3.3-1,4-2.2l1.4,1.1c-1.5,1.9-3.3,2.7-5.4,2.7
		c-3.8,0-6.5-2.8-6.5-6.6c0-3.8,2.8-6.6,6.4-6.6c3.8,0,6,2.9,6,6.3v0.8H267.3z M275.9,97.8c0-2.4-1.5-4-4.1-4c-2.3,0-4.4,2-4.4,4
		H275.9z"/>
	<rect x="282.2" y="84.7" class="st0" width="1.8" height="20.4"/>
	<path class="st0" d="M298.3,95.5c-0.6-0.9-1.8-1.7-3.2-1.7c-2.9-0.1-4.7,2.1-4.7,5c0,2.9,1.8,5.1,4.7,5c1.4,0,2.6-0.8,3.2-1.7
		l1.5,1.1c-1.2,1.5-2.9,2.2-4.6,2.2c-4.1,0.1-6.7-2.8-6.7-6.6c0-3.8,2.6-6.7,6.7-6.6c1.7,0,3.4,0.7,4.6,2.2L298.3,95.5z"/>
	<path class="st0" d="M311,97.4v-0.3c0-2.2-1.1-3.3-3.2-3.3c-1.5,0-2.8,0.5-3.9,1.5l-1.1-1.3c1.2-1.2,3-1.8,5.3-1.8
		c2.5,0,4.6,1.4,4.6,4.5v5.6c0,1,0.1,2.2,0.2,2.8h-1.7c-0.1-0.6-0.2-1.4-0.2-2.1h-0.1c-1,1.7-2.4,2.4-4.5,2.4
		c-2.2,0-4.3-1.2-4.3-3.7c0-4.1,4.8-4.4,7.9-4.4H311z M310.1,98.8c-1.8,0-5.9,0.1-5.9,2.7c0,1.7,1.5,2.3,3,2.3
		c2.6,0,3.8-1.8,3.8-4.1v-0.9H310.1z"/>
	<path class="st0" d="M326.9,95.5c-0.6-0.9-1.8-1.7-3.2-1.7c-2.9-0.1-4.7,2.1-4.7,5c0,2.9,1.8,5.1,4.7,5c1.4,0,2.6-0.8,3.2-1.7
		l1.5,1.1c-1.2,1.5-2.9,2.2-4.6,2.2c-4.1,0.1-6.7-2.8-6.7-6.6c0-3.8,2.6-6.7,6.7-6.6c1.7,0,3.4,0.7,4.6,2.2L326.9,95.5z"/>
	<path class="st0" d="M331.5,84.7h1.8v9.8h0.1c0.8-1.4,2.6-2.3,4.2-2.3c3.2,0,4.7,1.8,4.7,4.9v8h-1.8v-7c0-2.8-0.8-4.3-3.4-4.3
		c-0.4,0-3.8,0.2-3.8,4.9v6.5h-1.8V84.7z"/>
	<polygon points="333.3,29.4 329.6,29.4 329.6,40.4 327.9,40.4 327.9,29.4 325.2,29.4 325.2,27.8 327.9,27.8 327.9,24.2 329.6,24.2 
		329.6,27.8 333.3,27.8 	"/>
	<polygon points="358.8,29.4 355.2,29.4 355.2,40.4 353.4,40.4 353.4,29.4 350.8,29.4 350.8,27.8 353.4,27.8 353.4,24.2 355.2,24.2 
		355.2,27.8 358.8,27.8 	"/>
	<path class="st1" d="M59.1,124c-17.1-0.4-24.1-15.3-24.6-22.2c0,0,0-13.1,0-31c0,0.1,0-49.8,0-49.8H15.8c0,0,0,82.3,0,83
		c1.1,20.8,18.2,38.7,38.6,38.8c0.1,0,17.4,0.1,17.4,0.1l0.1-18.8C71.9,124,66.2,124.2,59.1,124"/>
	<path class="st2" d="M100.2,21c0,17.9,0.2,35.8,0,53.7c0.5,20.3-11.2,28.8-24.6,30.7c0.1,0-18.4,0-18.4,0l0-18.8c0,0,12.6,0,12.6,0
		c6.2-0.3,11.5-5.2,11.6-11.5c0.2-17.7,0.1-36.3,0.1-54H100.2z"/>
	<path class="st3" d="M100.2,21c0,17.9,0.2,35.8,0,53.7c0.5,20.3-11.2,28.8-24.6,30.7c0.1,0-18.4,0-18.4,0l0-18.8c0,0,12.6,0,12.6,0
		c6.2-0.3,11.5-5.2,11.6-11.5c0.2-17.7,0.1-36.3,0.1-54H100.2z"/>
	<path class="st2" d="M157.8,21.1c-8.2,11.2-16.8,22.6-25.1,33.7c-2,2.7-2.1,4.6,0,7.3c10.8,13.5,23.7,28.9,35,43.3
		c0,0-20.7,0-20.7,0s-35.8-42.7-35.8-42.7c-2.3-2.7-2.2-5,0-7.7c0-0.1,15.6-20,23.4-30c0.9-1.1,3-3.7,3-3.8
		C144.4,21.1,151.1,21.1,157.8,21.1"/>
</g>
</svg>
